<svg width="60" height="60" viewBox="0 0 60 60" fill="none" xmlns="http://www.w3.org/2000/svg">
<rect width="60" height="60" fill="#E5E5E5"/>
<g clip-path="url(#clip0_0_1)">
<rect width="1920" height="2883" transform="translate(-330 -710)" fill="white"/>
<rect x="-20" y="-25" width="420" height="110" rx="14" fill="white"/>
<rect x="-19.5" y="-24.5" width="419" height="109" rx="13.5" stroke="#242424" stroke-opacity="0.1"/>
<circle cx="30" cy="30" r="30" fill="#F4F4F4"/>
<path opacity="0.9" d="M40.9924 21.9492C40.9925 21.7726 40.9458 21.5991 40.8571 21.4464C40.7683 21.2937 40.6407 21.1672 40.4871 21.0799C40.3336 20.9925 40.1597 20.9474 39.983 20.9492C39.8064 20.9509 39.6334 20.9995 39.4816 21.0898C38.8963 21.4382 38.2662 21.705 37.6086 21.8828C36.6696 21.0771 35.472 20.6362 34.2347 20.6407C32.8772 20.6422 31.5735 21.1713 30.5989 22.116C29.6242 23.0608 29.0548 24.3474 29.011 25.7041C26.335 25.2774 23.9097 23.8807 22.1975 21.7803C22.0943 21.6551 21.9626 21.5566 21.8133 21.493C21.6641 21.4295 21.5018 21.4027 21.34 21.415C21.1784 21.4283 21.0224 21.4808 20.8856 21.5679C20.7488 21.6551 20.6353 21.7742 20.5549 21.915C20.1424 22.6348 19.9055 23.4418 19.8634 24.2703C19.8214 25.0989 19.9753 25.9257 20.3127 26.6836L20.3107 26.6855C20.1591 26.7789 20.0339 26.9097 19.9473 27.0653C19.8606 27.2209 19.8152 27.3961 19.8156 27.5742C19.8138 27.7211 19.8226 27.868 19.842 28.0137C19.9441 29.2719 20.5018 30.4497 21.4104 31.3262C21.3487 31.4436 21.3111 31.5721 21.2997 31.7042C21.2883 31.8364 21.3033 31.9694 21.3439 32.0957C21.7401 33.3298 22.5824 34.3718 23.7063 35.0176C22.5645 35.4591 21.3317 35.613 20.1164 35.4658C19.8915 35.4376 19.6636 35.4866 19.4703 35.6049C19.2769 35.7232 19.1294 35.9037 19.0521 36.1168C18.9748 36.3299 18.9722 36.563 19.0448 36.7777C19.1173 36.9925 19.2607 37.1762 19.4514 37.2988C21.5415 38.645 23.9751 39.3607 26.4612 39.3604C29.2804 39.3921 32.0311 38.4912 34.2854 36.7978C36.5397 35.1044 38.1711 32.7135 38.926 29.997C39.2791 28.8137 39.4593 27.5855 39.4612 26.3506C39.4612 26.2852 39.4612 26.2178 39.4602 26.1504C39.9823 25.5873 40.3868 24.9257 40.6499 24.2043C40.913 23.4829 41.0294 22.7162 40.9924 21.9492ZM37.6857 25.1611C37.5206 25.3565 37.437 25.6079 37.4523 25.8633C37.4621 26.0283 37.4611 26.1943 37.4611 26.3506C37.4591 27.3941 37.3061 28.4319 37.007 29.4316C36.3905 31.743 35.0162 33.7807 33.1041 35.2182C31.192 36.6558 28.8529 37.4101 26.4612 37.3604C25.6021 37.3606 24.7459 37.2597 23.9104 37.0596C24.9758 36.7162 25.972 36.1869 26.8528 35.4961C27.015 35.3684 27.1337 35.1936 27.1927 34.9957C27.2516 34.7978 27.2479 34.5865 27.182 34.3908C27.116 34.1952 26.9912 34.0247 26.8246 33.9028C26.6579 33.7809 26.4576 33.7135 26.2512 33.71C25.42 33.697 24.6263 33.362 24.0373 32.7754C24.1867 32.7471 24.3352 32.7119 24.4826 32.6699C24.6986 32.6084 24.8877 32.476 25.0193 32.2941C25.1509 32.1121 25.2174 31.8911 25.2082 31.6667C25.199 31.4423 25.1145 31.2275 24.9683 31.057C24.8222 30.8865 24.6229 30.7701 24.4025 30.7266C23.9201 30.6313 23.4661 30.426 23.0759 30.1268C22.6856 29.8275 22.3697 29.4422 22.1525 29.001C22.3333 29.0256 22.5152 29.041 22.6975 29.0469C22.9141 29.0502 23.1261 28.9845 23.3028 28.8593C23.4796 28.7341 23.612 28.556 23.6809 28.3506C23.7468 28.1434 23.7435 27.9203 23.6712 27.7151C23.5989 27.51 23.4618 27.334 23.2805 27.2139C22.8406 26.9208 22.4803 26.5233 22.2318 26.0568C21.9833 25.5904 21.8544 25.0695 21.8566 24.541C21.8566 24.4746 21.8586 24.4082 21.8625 24.3428C24.1038 26.433 27.0108 27.6652 30.0715 27.8223C30.226 27.8284 30.3799 27.7993 30.5215 27.7372C30.6631 27.6751 30.7887 27.5816 30.8889 27.4639C30.9881 27.345 31.0583 27.2047 31.0941 27.054C31.1298 26.9034 31.1301 26.7465 31.0949 26.5957C31.0377 26.3571 31.0085 26.1126 31.008 25.8672C31.0089 25.0117 31.3491 24.1916 31.954 23.5867C32.5589 22.9818 33.3791 22.6415 34.2346 22.6406C34.6747 22.6395 35.1103 22.7295 35.5139 22.9052C35.9174 23.0808 36.2802 23.3382 36.5793 23.6611C36.6946 23.7852 36.8398 23.8777 37.001 23.9299C37.1622 23.982 37.334 23.9921 37.5002 23.959C37.911 23.8791 38.3159 23.7714 38.7121 23.6368C38.4418 24.1897 38.0964 24.7027 37.6857 25.1611Z" fill="#242424"/>
</g>
<defs>
<clipPath id="clip0_0_1">
<rect width="1920" height="2883" fill="white" transform="translate(-330 -710)"/>
</clipPath>
</defs>
</svg>
